<?xml version="1.0" encoding="UTF-8"?>
<svg width="70px" height="40px" viewBox="0 0 70 40" version="1.1" xmlns="http://www.w3.org/2000/svg" xmlns:xlink="http://www.w3.org/1999/xlink">
    <!-- Generator: Sketch 44 (41411) - http://www.bohemiancoding.com/sketch -->
    <title>logo extension school sans</title>
    <desc>Created with Sketch.</desc>
    <defs></defs>
    <g id="Symbols" stroke="none" stroke-width="1" fill="none" fill-rule="evenodd">
        <g id="Header:-Desktop" transform="translate(-111.000000, -19.000000)" fill="#DA3331">
            <g id="Header">
                <g id="logo-extension-school-sans" transform="translate(111.500000, 19.000000)">
                    <polygon id="Fill-1" points="0.716752632 18.0694653 7.01834912 18.0694653 7.01834912 19.6306535 2.32029649 19.6306535 2.32029649 21.4825347 5.9087 21.4825347 5.9087 23.0682772 2.32029649 23.0682772 2.32029649 25.125703 7.01834912 25.125703 7.01834912 26.6868911 0.716752632 26.6868911"></polygon>
                    <g id="Group-21">
                        <path d="M8.62274035,25.6219406 C8.62274035,25.3070891 8.6481614,25.2104554 8.84547719,24.9443168 L10.7564947,22.3783762 L8.84547719,19.8124356 C8.6481614,19.545901 8.62274035,19.4492673 8.62274035,19.1344158 L8.62274035,18.0694653 L10.1645474,18.0694653 L10.1645474,18.9047129 C10.1645474,19.025505 10.1645474,19.0496634 10.2262842,19.1225347 L11.7676877,21.1799604 L13.3211965,19.1225347 C13.3833368,19.0496634 13.3833368,19.025505 13.3833368,18.9047129 L13.3833368,18.0694653 L14.9126351,18.0694653 L14.9126351,19.1344158 C14.9126351,19.4492673 14.8997228,19.545901 14.702407,19.8124356 L12.7788807,22.3783762 L14.702407,24.9443168 C14.8997228,25.2104554 14.9126351,25.3070891 14.9126351,25.6219406 L14.9126351,26.6868911 L13.3833368,26.6868911 L13.3833368,25.8520396 C13.3833368,25.7308515 13.3833368,25.7066931 13.3211965,25.6342178 L11.7676877,23.576396 L10.2262842,25.6342178 C10.1645474,25.7066931 10.1645474,25.7308515 10.1645474,25.8520396 L10.1645474,26.6868911 L8.62274035,26.6868911 L8.62274035,25.6219406 Z" id="Fill-2"></path>
                        <polygon id="Fill-4" points="18.5878333 19.6307723 16.2454649 19.6307723 16.2454649 18.0695842 22.5466579 18.0695842 22.5466579 19.6307723 20.1913772 19.6307723 20.1913772 26.6870099 18.5878333 26.6870099"></polygon>
                        <polygon id="Fill-5" points="24.1514123 18.0694653 30.4526053 18.0694653 30.4526053 19.6306535 25.7541491 19.6306535 25.7541491 21.4825347 29.3425526 21.4825347 29.3425526 23.0682772 25.7541491 23.0682772 25.7541491 25.125703 30.4526053 25.125703 30.4526053 26.6868911 24.1514123 26.6868911"></polygon>
                        <polygon id="Fill-6" points="32.4267719 18.0694653 33.9810877 18.0694653 37.1252281 23.4674851 37.1252281 18.0694653 38.7283684 18.0694653 38.7283684 26.6868911 37.2115789 26.6868911 34.0303158 21.1435248 34.0303158 26.6868911 32.4267719 26.6868911"></polygon>
                        <path d="M40.6780825,24.6657822 L42.1831702,24.2784554 L42.2566088,24.5085545 C42.380486,24.9077624 42.565293,25.1255842 42.934907,25.1255842 L44.7228544,25.1255842 C45.0807667,25.1255842 45.3765386,24.8230099 45.3765386,24.4598416 L45.3765386,24.0364752 C45.3765386,23.7699406 45.2042404,23.5160792 44.957293,23.4554851 L42.1831702,22.7172673 C41.3071526,22.4871683 40.7035035,21.6158812 40.7035035,20.6717228 L40.7035035,20.2721188 C40.7035035,19.0012277 41.6525561,18.0693465 42.9470123,18.0693465 L44.6736263,18.0693465 C45.8700298,18.0693465 46.8436965,18.9410297 46.9917842,20.0784554 L45.5000123,20.4780594 L45.4261702,20.2479604 C45.3026965,19.8487525 45.117486,19.6309307 44.7599772,19.6309307 L42.9724333,19.6309307 C42.6020123,19.6309307 42.3058368,19.933505 42.3058368,20.2962772 L42.3058368,20.5992475 C42.3058368,21.0107327 42.5402754,21.2527129 42.9599246,21.3616238 L45.2655737,21.9426139 C46.2279421,22.1845941 46.9425561,23.0075644 46.9425561,24.0364752 L46.9425561,24.3509307 C46.9425561,25.6459802 45.9559772,26.6871683 44.636907,26.6871683 L43.0216614,26.6871683 C41.8127491,26.6871683 40.8261702,25.8154851 40.6780825,24.6657822" id="Fill-7"></path>
                        <polygon id="Fill-8" points="48.4859772 25.125703 49.7191 25.125703 49.7191 19.6306535 48.4859772 19.6306535 48.4859772 18.0694653 52.5678719 18.0694653 52.5678719 19.6306535 51.3347491 19.6306535 51.3347491 25.125703 52.5678719 25.125703 52.5678719 26.6868911 48.4859772 26.6868911"></polygon>
                        <path d="M58.2291,25.125703 C58.5983105,25.125703 58.9069947,24.8231287 58.9069947,24.4599604 L58.9069947,20.296396 C58.9069947,19.9332277 58.5983105,19.6306535 58.2291,19.6306535 L56.4653632,19.6306535 C56.0953456,19.6306535 55.7995737,19.9332277 55.7995737,20.296396 L55.7995737,24.4599604 C55.7995737,24.8231287 56.0953456,25.125703 56.4653632,25.125703 L58.2291,25.125703 Z M54.2085386,24.3874851 L54.2085386,20.3692673 C54.2085386,19.0983762 55.2568544,18.0694653 56.5521175,18.0694653 L58.1669596,18.0694653 C59.449714,18.0694653 60.5101351,19.0983762 60.5101351,20.3692673 L60.5101351,24.3874851 C60.5101351,25.6583762 59.449714,26.6868911 58.1669596,26.6868911 L56.5521175,26.6868911 C55.2568544,26.6868911 54.2085386,25.6583762 54.2085386,24.3874851 L54.2085386,24.3874851 Z" id="Fill-9"></path>
                        <polygon id="Fill-10" points="62.6076947 18.0694653 64.1620105 18.0694653 67.3061509 23.4674851 67.3061509 18.0694653 68.9092912 18.0694653 68.9092912 26.6868911 67.3925018 26.6868911 64.2112386 21.1435248 64.2112386 26.6868911 62.6076947 26.6868911"></polygon>
                        <path d="M0.322121053,37.6937822 L1.82720877,37.3064554 L1.90064737,37.5365545 C2.02452456,37.9357624 2.20933158,38.1535842 2.57894561,38.1535842 L4.36689298,38.1535842 C4.72480526,38.1535842 5.02057719,37.8510099 5.02057719,37.4878416 L5.02057719,37.0644752 C5.02057719,36.7979406 4.84827895,36.5440792 4.60133158,36.4834851 L1.82720877,35.7452673 C0.951191228,35.5151683 0.347542105,34.6438812 0.347542105,33.6997228 L0.347542105,33.3001188 C0.347542105,32.0292277 1.29659474,31.0973465 2.59105088,31.0973465 L4.31766491,31.0973465 C5.51406842,31.0973465 6.48773509,31.9690297 6.63582281,33.1064554 L5.14405088,33.5060594 L5.07020877,33.2759604 C4.94673509,32.8767525 4.76152456,32.6589307 4.40401579,32.6589307 L2.61647193,32.6589307 C2.24605088,32.6589307 1.94987544,32.961505 1.94987544,33.3242772 L1.94987544,33.6272475 C1.94987544,34.0387327 2.18431404,34.2807129 2.60355965,34.3896238 L4.90961228,34.9706139 C5.8719807,35.2125941 6.58659474,36.0355644 6.58659474,37.0644752 L6.58659474,37.3789307 C6.58659474,38.6739802 5.60001579,39.7151683 4.28094561,39.7151683 L2.6657,39.7151683 C1.45678772,39.7151683 0.470208772,38.8434851 0.322121053,37.6937822" id="Fill-11"></path>
                        <path d="M8.37611579,37.4154059 L8.37611579,33.3971881 C8.37611579,32.126297 9.42443158,31.0973861 10.7192912,31.0973861 L12.3470456,31.0973861 C13.5426421,31.0973861 14.5171158,31.9690693 14.6773088,33.106495 L13.1734316,33.506099 L13.0866772,33.276 C12.938993,32.8767921 12.7909053,32.6589703 12.4208877,32.6589703 L10.6325368,32.6589703 C10.2633263,32.6589703 9.96715088,32.9615446 9.96715088,33.3243168 L9.96715088,37.4878812 C9.96715088,37.8510495 10.2633263,38.1536238 10.6325368,38.1536238 L12.3962737,38.1536238 C12.7662912,38.1536238 12.9761158,37.9480792 13.0866772,37.5365941 L13.1480105,37.306495 L14.6530982,37.6938218 C14.505414,38.8435248 13.5305368,39.7152079 12.3349404,39.7152079 L10.7192912,39.7152079 C9.42443158,39.7152079 8.37611579,38.685901 8.37611579,37.4154059" id="Fill-12"></path>
                        <polygon id="Fill-13" points="16.4300702 31.0974257 18.032807 31.0974257 18.032807 34.5227723 21.1281228 34.5227723 21.1281228 31.0974257 22.7312632 31.0974257 22.7312632 39.7148515 21.1281228 39.7148515 21.1281228 36.0962376 18.032807 36.0962376 18.032807 39.7148515 16.4300702 39.7148515"></polygon>
                        <path d="M28.8500298,38.153703 C29.2192404,38.153703 29.5279246,37.8511287 29.5279246,37.4879604 L29.5279246,33.324396 C29.5279246,32.9612277 29.2192404,32.6586535 28.8500298,32.6586535 L27.086293,32.6586535 C26.7162754,32.6586535 26.4205035,32.9612277 26.4205035,33.324396 L26.4205035,37.4879604 C26.4205035,37.8511287 26.7162754,38.153703 27.086293,38.153703 L28.8500298,38.153703 Z M24.8294684,37.4154851 L24.8294684,33.3972673 C24.8294684,32.1263762 25.8777842,31.0974653 27.1730474,31.0974653 L28.7878895,31.0974653 C30.0706439,31.0974653 31.1310649,32.1263762 31.1310649,33.3972673 L31.1310649,37.4154851 C31.1310649,38.6859802 30.0706439,39.7148911 28.7878895,39.7148911 L27.1730474,39.7148911 C25.8777842,39.7148911 24.8294684,38.6859802 24.8294684,37.4154851 L24.8294684,37.4154851 Z" id="Fill-14"></path>
                        <path d="M37.0026825,38.153703 C37.371893,38.153703 37.6805772,37.8511287 37.6805772,37.4879604 L37.6805772,33.324396 C37.6805772,32.9612277 37.371893,32.6586535 37.0026825,32.6586535 L35.2389456,32.6586535 C34.8689281,32.6586535 34.5731561,32.9612277 34.5731561,33.324396 L34.5731561,37.4879604 C34.5731561,37.8511287 34.8689281,38.153703 35.2389456,38.153703 L37.0026825,38.153703 Z M32.9821211,37.4154851 L32.9821211,33.3972673 C32.9821211,32.1263762 34.0304368,31.0974653 35.3257,31.0974653 L36.9405421,31.0974653 C38.2232965,31.0974653 39.2837175,32.1263762 39.2837175,33.3972673 L39.2837175,37.4154851 C39.2837175,38.6859802 38.2232965,39.7148911 36.9405421,39.7148911 L35.3257,39.7148911 C34.0304368,39.7148911 32.9821211,38.6859802 32.9821211,37.4154851 L32.9821211,37.4154851 Z" id="Fill-15"></path>
                        <polygon id="Fill-16" points="41.3812772 31.0974257 42.9848211 31.0974257 42.9848211 38.1536634 47.2511193 38.1536634 47.2511193 39.7148515 41.3812772 39.7148515"></polygon>
                        <polygon id="Fill-17" points="0.700329825 0.316792079 10.3034351 0.316792079 10.3034351 2.69580198 3.14357544 2.69580198 3.14357544 5.51837624 8.61232982 5.51837624 8.61232982 7.93461386 3.14357544 7.93461386 3.14357544 11.0700594 10.3034351 11.0700594 10.3034351 13.4494653 0.700329825 13.4494653"></polygon>
                        <path d="M19.4566684,5.68415842 C20.0203702,5.68415842 20.471493,5.24178218 20.471493,4.68811881 L20.471493,3.71069307 C20.471493,3.15742574 20.0203702,2.6960396 19.4566684,2.6960396 L15.7544754,2.6960396 L15.7544754,5.68415842 L19.4566684,5.68415842 Z M13.3112298,0.316633663 L19.343686,0.316633663 C21.2982825,0.316633663 22.9143351,1.88455446 22.9143351,3.82118812 L22.9143351,4.57762376 C22.9143351,6.4960396 21.2982825,8.08217822 19.343686,8.08217822 L15.7544754,8.08217822 L15.7544754,13.449703 L13.3112298,13.449703 L13.3112298,0.316633663 Z" id="Fill-18"></path>
                        <polygon id="Fill-19" points="25.3583877 0.316792079 34.961493 0.316792079 34.961493 2.69580198 27.8016333 2.69580198 27.8016333 5.51837624 33.2703877 5.51837624 33.2703877 7.93461386 27.8016333 7.93461386 27.8016333 13.4494653 25.3583877 13.4494653"></polygon>
                        <polygon id="Fill-20" points="37.3114474 0.316792079 39.754693 0.316792079 39.754693 11.0700594 46.2568333 11.0700594 46.2568333 13.4494653 37.3114474 13.4494653"></polygon>
                    </g>
                </g>
            </g>
        </g>
    </g>
</svg>
