<?xml version="1.0" encoding="utf-8"?>
<!-- Generator: Adobe Illustrator 16.0.4, SVG Export Plug-In . SVG Version: 6.00 Build 0)  -->
<!DOCTYPE svg PUBLIC "-//W3C//DTD SVG 1.1//EN" "http://www.w3.org/Graphics/SVG/1.1/DTD/svg11.dtd">
<svg version="1.1" id="Calque_1" xmlns="http://www.w3.org/2000/svg" xmlns:xlink="http://www.w3.org/1999/xlink" x="0px" y="0px"
	 width="609.99px" height="264.003px" viewBox="0 0 609.99 264.003" enable-background="new 0 0 609.99 264.003"
	 xml:space="preserve">
<g>
	<polygon fill="#FF0000" points="3.124,115.88 40.938,115.88 40.938,76.837 129.956,76.837 129.956,44.422 3.124,44.422 	"/>
	<polygon fill="#FF0000" points="3.124,219.754 129.956,219.754 129.956,187.339 40.938,187.339 40.938,148.296 3.124,148.296 	"/>
	<rect x="40.938" y="115.88" fill="#FF0000" width="81.406" height="32.416"/>
	<path fill="#FF0000" d="M287.479,60.525c-4.833-4.836-11.094-8.732-18.787-11.68c-7.695-2.948-17.028-4.423-27.992-4.423h-78.332
		v175.333h37.814v-71.466H240.7c10.964,0,20.297-1.473,27.992-4.42c7.693-2.95,13.955-6.839,18.787-11.68
		c4.828-4.837,8.348-10.394,10.558-16.668c2.212-6.272,3.314-12.661,3.314-19.164c0-6.65-1.103-13.076-3.314-19.276
		C295.827,70.881,292.307,65.364,287.479,60.525z M261.203,106.395c-1.885,2.553-4.381,4.532-7.489,5.929
		c-3.113,1.398-6.715,2.342-10.806,2.827c-4.093,0.488-8.347,0.73-12.769,0.73h-29.958V76.843h29.958
		c4.421,0,8.675,0.245,12.769,0.73c4.091,0.486,7.693,1.43,10.806,2.828c3.107,1.398,5.604,3.374,7.489,5.928
		c1.88,2.553,2.825,5.9,2.825,10.033C264.028,100.497,263.083,103.84,261.203,106.395z"/>
	<polygon fill="#FF0000" points="517.448,187.339 517.448,44.422 479.634,44.422 479.634,219.754 606.466,219.754 606.466,187.339 	
		"/>
	<polygon fill="#FF0000" points="325.415,115.88 363.229,115.88 363.229,76.837 452.247,76.837 452.247,44.422 325.415,44.422 	"/>
	<rect x="325.415" y="148.296" fill="#FF0000" width="37.814" height="71.458"/>
	<rect x="363.229" y="115.88" fill="#FF0000" width="81.407" height="32.416"/>
</g>
</svg>
